<?xml version="1.0" encoding="UTF-8" standalone="no"?><!-- Generator: Gravit.io --><svg xmlns="http://www.w3.org/2000/svg" xmlns:xlink="http://www.w3.org/1999/xlink" style="isolation:isolate" viewBox="0 0 100 100" width="100pt" height="100pt"><defs><clipPath id="_clipPath_4LscUOWwsFIKyCKFTIWITYxD113AdrnR"><rect width="100" height="100"/></clipPath></defs><g clip-path="url(#_clipPath_4LscUOWwsFIKyCKFTIWITYxD113AdrnR)"><linearGradient id="_lgradient_4" x1="0.5046392002603881" y1="0.0545094170330539" x2="0.5046392002603881" y2="0.9420159678563211" gradientTransform="matrix(80.645,0,0,100,9.677,0)" gradientUnits="userSpaceOnUse"><stop offset="0.8695652173913043%" stop-opacity="1" style="stop-color:rgb(18,181,67)"/><stop offset="98.69565217391305%" stop-opacity="1" style="stop-color:rgb(4,59,14)"/></linearGradient><path d=" M 50 100 L 50 100 L 54.839 100 L 54.839 77.419 Q 59.392 82.83 72.581 83.871 Q 80.242 84.476 90.323 82.258 Q 75.828 77.707 67.742 62.903 Q 69.829 68.191 87.097 66.129 Q 68.431 54.264 62.903 43.548 Q 74.262 48.43 80.645 48.387 Q 63.348 33.347 59.677 24.194 Q 66.865 27.969 75.806 29.032 Q 54.03 11.42 50 0 M 50 100 L 50 100 L 45.161 100 L 45.161 77.419 Q 40.608 82.83 27.419 83.871 Q 19.758 84.476 9.677 82.258 Q 24.172 77.707 32.258 62.903 Q 30.171 68.191 12.903 66.129 Q 31.569 54.264 37.097 43.548 Q 25.738 48.43 19.355 48.387 Q 36.652 33.347 40.323 24.194 Q 33.135 27.969 24.194 29.032 Q 45.97 11.42 50 0" fill-rule="evenodd" fill="url(#_lgradient_4)"/></g></svg>